<svg width="32" height="32" viewBox="0 0 32 32" fill="none" xmlns="http://www.w3.org/2000/svg">
<path d="M16.0002 7.98749C11.5666 7.98749 7.98846 11.5656 7.98846 15.9992C7.98846 20.4328 11.5666 24.0109 16.0002 24.0109C20.4338 24.0109 24.0119 20.4328 24.0119 15.9992C24.0119 11.5656 20.4338 7.98749 16.0002 7.98749ZM16.0002 21.2062C13.133 21.2062 10.7932 18.8664 10.7932 15.9992C10.7932 13.132 13.133 10.7922 16.0002 10.7922C18.8674 10.7922 21.2072 13.132 21.2072 15.9992C21.2072 18.8664 18.8674 21.2062 16.0002 21.2062ZM24.34 5.79217C23.3049 5.79217 22.4689 6.62811 22.4689 7.66327C22.4689 8.69842 23.3049 9.53436 24.34 9.53436C25.3752 9.53436 26.2111 8.70233 26.2111 7.66327C26.2114 7.41747 26.1632 7.17402 26.0693 6.94687C25.9754 6.71972 25.8376 6.51333 25.6638 6.33952C25.49 6.16571 25.2836 6.0279 25.0564 5.93398C24.8293 5.84005 24.5858 5.79187 24.34 5.79217ZM31.6174 15.9992C31.6174 13.843 31.6369 11.7062 31.5158 9.55389C31.3947 7.05389 30.8244 4.83514 28.9963 3.00702C27.1642 1.17499 24.9494 0.608584 22.4494 0.48749C20.2931 0.366396 18.1564 0.385928 16.0041 0.385928C13.8478 0.385928 11.7111 0.366396 9.55878 0.48749C7.05878 0.608584 4.84003 1.1789 3.0119 3.00702C1.17987 4.83905 0.613466 7.05389 0.492373 9.55389C0.371279 11.7101 0.39081 13.8469 0.39081 15.9992C0.39081 18.1515 0.371279 20.2922 0.492373 22.4445C0.613466 24.9445 1.18378 27.1633 3.0119 28.9914C4.84393 30.8234 7.05878 31.3898 9.55878 31.5109C11.715 31.632 13.8517 31.6125 16.0041 31.6125C18.1603 31.6125 20.2971 31.632 22.4494 31.5109C24.9494 31.3898 27.1681 30.8195 28.9963 28.9914C30.8283 27.1594 31.3947 24.9445 31.5158 22.4445C31.6408 20.2922 31.6174 18.1555 31.6174 15.9992ZM28.1799 25.2101C27.8947 25.9211 27.551 26.4523 27.0002 26.9992C26.4494 27.55 25.9221 27.8937 25.2111 28.1789C23.1564 28.9953 18.2775 28.8117 16.0002 28.8117C13.7228 28.8117 8.84003 28.9953 6.78534 28.1828C6.0744 27.8976 5.54315 27.5539 4.99628 27.0031C4.4455 26.4523 4.10175 25.925 3.81659 25.214C3.00409 23.1555 3.18768 18.2765 3.18768 15.9992C3.18768 13.7219 3.00409 8.83905 3.81659 6.78436C4.10175 6.07343 4.4455 5.54218 4.99628 4.9953C5.54706 4.44843 6.0744 4.10077 6.78534 3.81561C8.84003 3.00311 13.7228 3.18671 16.0002 3.18671C18.2775 3.18671 23.1603 3.00311 25.215 3.81561C25.926 4.10077 26.4572 4.44452 27.0041 4.9953C27.5549 5.54608 27.8986 6.07343 28.1838 6.78436C28.9963 8.83905 28.8127 13.7219 28.8127 15.9992C28.8127 18.2765 28.9963 23.1554 28.1799 25.2101Z" fill="white"/>
</svg>
